<svg xmlns="http://www.w3.org/2000/svg" viewBox="0 0 64 64">
  <circle cx="32" cy="32" r="32" fill="#0277BD"/>
  <path d="M8 34c4-4 8-4 12 0s8 4 12 0 8-4 12 0 8 4 12 0" stroke="#fff" stroke-width="3" fill="none" stroke-linecap="round"/>
  <path d="M8 42c4-4 8-4 12 0s8 4 12 0 8-4 12 0 8 4 12 0" stroke="#B3E5FC" stroke-width="2" fill="none" stroke-linecap="round"/>
  <path d="M8 26c4-4 8-4 12 0s8 4 12 0 8-4 12 0 8 4 12 0" stroke="#E1F5FE" stroke-width="2" fill="none" stroke-linecap="round"/>
</svg>
